<?xml version="1.0" encoding="UTF-8"?>
<svg version="1.1" xmlns="http://www.w3.org/2000/svg" width="1024" height="1024">
<path d="M0 0 C337.92 0 675.84 0 1024 0 C1024 337.92 1024 675.84 1024 1024 C686.08 1024 348.16 1024 0 1024 C0 686.08 0 348.16 0 0 Z " fill="#D92819" transform="translate(0,0)"/>
<path d="M0 0 C0.64163086 0.33821777 1.28326172 0.67643555 1.94433594 1.02490234 C23.31953654 12.32232145 42.62284574 27.25574288 60 44 C60.70205566 44.66950684 61.40411133 45.33901367 62.12744141 46.02880859 C72.53690568 55.99436291 81.83972886 66.11824016 90 78 C90.75337646 79.0828125 90.75337646 79.0828125 91.52197266 80.1875 C116.08656202 115.61586551 133.00006414 156.04735601 138.72363281 198.97412109 C138.99061676 200.93121723 139.30310543 202.88193942 139.6171875 204.83203125 C147.59181528 258.40330978 136.57501075 317.51729315 111 365 C110.47237061 365.99507568 110.47237061 365.99507568 109.93408203 367.01025391 C104.66532825 376.90603909 98.71977556 386.03510221 92 395 C91.12228858 396.17960771 90.24468428 397.35929512 89.3671875 398.5390625 C87.25684501 401.36854478 85.13269615 404.18731378 83 407 C88.00899774 413.00923442 93.40941859 418.4765562 98.99023438 423.95117188 C103.03748106 427.95185388 106.83966759 432.04164729 110.45922852 436.43579102 C112.02269709 438.25976132 112.02269709 438.25976132 115 439 C115.99 438.67 116.98 438.34 118 438 C130.4033045 436.79549962 142.02581529 437.09565359 152.34765625 444.73828125 C154.46515927 446.55883894 156.47007407 448.44623692 158.4375 450.42724609 C160.32716302 452.32931002 162.24224375 454.20447001 164.15625 456.08203125 C167.09673182 458.98406086 170.03314998 461.88983217 172.94921875 464.81640625 C173.56112061 465.42943604 174.17302246 466.04246582 174.8034668 466.67407227 C176.65393827 468.63355228 178.41314228 470.62976345 180.16999817 472.67198181 C183.78228737 476.80718208 187.57990458 480.70825872 191.4765625 484.57421875 C192.18810486 485.28430084 192.89964722 485.99438293 193.63275146 486.72598267 C195.16426522 488.2537173 196.69693215 489.78029662 198.23065186 491.30581665 C200.66350535 493.72580168 203.09312949 496.14898843 205.52197266 498.57299805 C210.67850604 503.71815355 215.83895787 508.85936769 221 514 C226.98483003 519.96116247 232.96800595 525.92396572 238.94696045 531.89102173 C241.3305867 534.26820672 243.7172248 536.64233867 246.10400391 539.01635742 C247.57729769 540.48601575 249.05044962 541.95581632 250.5234375 543.42578125 C251.17922791 544.07640533 251.83501831 544.72702942 252.51068115 545.39736938 C256.33991123 549.22616557 259.97378436 553.17159826 263.503479 557.27862549 C265.37141406 559.42721933 267.34480036 561.4423038 269.375 563.4375 C270.13296875 564.18773437 270.8909375 564.93796875 271.671875 565.7109375 C272.82429687 566.84402344 272.82429687 566.84402344 274 568 C298.84529535 592.42842798 298.84529535 592.42842798 299.4375 609.8125 C299.10964311 621.99566208 295.05021185 630.08065023 287 639 C286.26136719 639.86882813 285.52273438 640.73765625 284.76171875 641.6328125 C276.51151963 651.17967505 267.77358405 658.00000013 255 660 C241.23012629 660.96993337 231.02645849 658.41332215 220 650 C215.56654716 645.95624617 211.36776842 641.69432072 207.16015625 637.41796875 C205.94543295 636.19509479 204.7299606 634.97296448 203.51377869 633.75154114 C200.33685268 630.55761314 197.16863577 627.35519424 194.00268555 624.15039062 C188.91375005 619.00190171 183.81171767 613.86639588 178.70931816 608.73125648 C176.93057607 606.93854889 175.15569352 605.14208921 173.38136292 603.34501648 C172.29867475 602.25231068 171.21591023 601.15968054 170.13305664 600.06713867 C169.64009598 599.5658696 169.14713531 599.06460052 168.63923645 598.54814148 C166.07134982 595.94207261 166.07134982 595.94207261 163 594 C163 593.34 163 592.68 163 592 C162.40781363 591.73229797 161.81562725 591.46459595 161.20549583 591.18878174 C158.97204732 589.98493326 157.50498118 588.76131119 155.71206665 586.97949219 C155.0841774 586.3601329 154.45628815 585.74077362 153.80937195 585.10264587 C153.13187393 584.42424149 152.45437592 583.7458371 151.75634766 583.046875 C150.67265144 581.97325462 150.67265144 581.97325462 149.56706238 580.87794495 C147.17738042 578.50727688 144.79532946 576.12911869 142.4140625 573.75 C140.75278241 572.09514791 139.09135243 570.44044629 137.42977905 568.78588867 C133.9443955 565.31248812 130.46317977 561.8349694 126.984375 558.35498047 C122.54050806 553.91091085 118.08307766 549.48072626 113.62189674 545.05404663 C110.18335708 541.63782577 106.75402876 538.21247015 103.32715988 534.7845459 C101.68864096 533.14837759 100.0468998 531.51542925 98.40181351 529.88586426 C96.09233461 527.5961347 93.79605436 525.2938894 91.50244141 522.98828125 C90.82899185 522.32607071 90.1555423 521.66386017 89.46168518 520.98158264 C81.42447546 512.83794689 75.69839869 503.73729592 75.75 492.0625 C75.74484375 490.89847656 75.7396875 489.73445312 75.734375 488.53515625 C76 485 76 485 77.3359375 481.47265625 C78.42765797 477.87214001 78.42765797 477.87214001 75.9921875 474.7109375 C74.97628328 473.5777618 73.93534764 472.46670116 72.875 471.375 C72.3289209 470.77743896 71.7828418 470.17987793 71.22021484 469.56420898 C69.49994156 467.68994389 67.75117406 465.84537044 66 464 C64.9089731 462.81869673 63.82035976 461.63515898 62.734375 460.44921875 C60.7149571 458.24641689 58.68643668 456.05280355 56.6484375 453.8671875 C53.67433608 450.64743758 50.813261 447.36028397 48 444 C45.09291078 445.35893281 42.6310858 446.92109662 40.0859375 448.87109375 C39.33441406 449.43989258 38.58289063 450.00869141 37.80859375 450.59472656 C37.00550781 451.2028418 36.20242188 451.81095703 35.375 452.4375 C26.24701655 459.24155198 16.88787487 465.36260776 7 471 C6.25314941 471.42764648 5.50629883 471.85529297 4.73681641 472.29589844 C-20.14349028 486.37466697 -47.28080385 495.01577727 -75.25048828 500.46386719 C-76.96993874 500.79914629 -78.68748795 501.14451363 -80.40185547 501.50488281 C-114.10891123 508.47278691 -153.90685664 505.59273158 -187 497 C-187.77118164 496.80067871 -188.54236328 496.60135742 -189.33691406 496.39599609 C-226.56428802 486.51484391 -261.06202609 469.06454937 -291 445 C-291.64195312 444.48405273 -292.28390625 443.96810547 -292.9453125 443.43652344 C-304.6932195 433.90781188 -316.37925925 423.70267781 -326 412 C-327.20462891 410.62714844 -327.20462891 410.62714844 -328.43359375 409.2265625 C-340.06161723 395.93859349 -349.77217416 381.60895783 -358 366 C-358.32919434 365.38930664 -358.65838867 364.77861328 -358.99755859 364.14941406 C-374.05860288 336.12225466 -383.56889963 305.44632403 -388 274 C-388.11569336 273.26249512 -388.23138672 272.52499023 -388.35058594 271.76513672 C-398.89508975 204.0706738 -378.45323369 132.64664064 -338.46679688 77.90087891 C-333.11080537 70.72651747 -327.3471973 63.9919871 -321.25 57.4375 C-319.34868921 55.37774664 -317.54364491 53.2773739 -315.75 51.125 C-307.29568514 41.41450157 -297.13934558 32.87973651 -287 25 C-286.30696777 24.45617676 -285.61393555 23.91235352 -284.89990234 23.35205078 C-205.94954061 -38.32636535 -94.98541628 -49.00041743 0 0 Z " fill="#FDFBFB" transform="translate(548,211)"/>
<path d="M0 0 C0.64163086 0.33821777 1.28326172 0.67643555 1.94433594 1.02490234 C23.31953654 12.32232145 42.62284574 27.25574288 60 44 C60.70205566 44.66950684 61.40411133 45.33901367 62.12744141 46.02880859 C72.53690568 55.99436291 81.83972886 66.11824016 90 78 C90.75337646 79.0828125 90.75337646 79.0828125 91.52197266 80.1875 C116.08656202 115.61586551 133.00006414 156.04735601 138.72363281 198.97412109 C138.99061676 200.93121723 139.30310543 202.88193942 139.6171875 204.83203125 C147.59181528 258.40330978 136.57501075 317.51729315 111 365 C110.47237061 365.99507568 110.47237061 365.99507568 109.93408203 367.01025391 C104.66532825 376.90603909 98.71977556 386.03510221 92 395 C91.12228858 396.17960771 90.24468428 397.35929512 89.3671875 398.5390625 C87.25684501 401.36854478 85.13269615 404.18731378 83 407 C88.00899774 413.00923442 93.40941859 418.4765562 98.99023438 423.95117188 C103.03748106 427.95185388 106.83966759 432.04164729 110.45922852 436.43579102 C112.02269709 438.25976132 112.02269709 438.25976132 115 439 C115.99 438.67 116.98 438.34 118 438 C130.4033045 436.79549962 142.02581529 437.09565359 152.34765625 444.73828125 C154.46515927 446.55883894 156.47007407 448.44623692 158.4375 450.42724609 C160.32716302 452.32931002 162.24224375 454.20447001 164.15625 456.08203125 C167.09673182 458.98406086 170.03314998 461.88983217 172.94921875 464.81640625 C173.56112061 465.42943604 174.17302246 466.04246582 174.8034668 466.67407227 C176.65393827 468.63355228 178.41314228 470.62976345 180.16999817 472.67198181 C183.78228737 476.80718208 187.57990458 480.70825872 191.4765625 484.57421875 C192.18810486 485.28430084 192.89964722 485.99438293 193.63275146 486.72598267 C195.16426522 488.2537173 196.69693215 489.78029662 198.23065186 491.30581665 C200.66350535 493.72580168 203.09312949 496.14898843 205.52197266 498.57299805 C210.67850604 503.71815355 215.83895787 508.85936769 221 514 C226.98483003 519.96116247 232.96800595 525.92396572 238.94696045 531.89102173 C241.3305867 534.26820672 243.7172248 536.64233867 246.10400391 539.01635742 C247.57729769 540.48601575 249.05044962 541.95581632 250.5234375 543.42578125 C251.17922791 544.07640533 251.83501831 544.72702942 252.51068115 545.39736938 C256.33991123 549.22616557 259.97378436 553.17159826 263.503479 557.27862549 C265.37141406 559.42721933 267.34480036 561.4423038 269.375 563.4375 C270.13296875 564.18773437 270.8909375 564.93796875 271.671875 565.7109375 C272.82429687 566.84402344 272.82429687 566.84402344 274 568 C298.84529535 592.42842798 298.84529535 592.42842798 299.4375 609.8125 C299.10964311 621.99566208 295.05021185 630.08065023 287 639 C286.26136719 639.86882813 285.52273438 640.73765625 284.76171875 641.6328125 C276.51151963 651.17967505 267.77358405 658.00000013 255 660 C241.23012629 660.96993337 231.02645849 658.41332215 220 650 C215.56654716 645.95624617 211.36776842 641.69432072 207.16015625 637.41796875 C205.94543295 636.19509479 204.7299606 634.97296448 203.51377869 633.75154114 C200.33685268 630.55761314 197.16863577 627.35519424 194.00268555 624.15039062 C188.91375005 619.00190171 183.81171767 613.86639588 178.70931816 608.73125648 C176.93057607 606.93854889 175.15569352 605.14208921 173.38136292 603.34501648 C172.29867475 602.25231068 171.21591023 601.15968054 170.13305664 600.06713867 C169.64009598 599.5658696 169.14713531 599.06460052 168.63923645 598.54814148 C166.07134982 595.94207261 166.07134982 595.94207261 163 594 C163 593.34 163 592.68 163 592 C162.40781363 591.73229797 161.81562725 591.46459595 161.20549583 591.18878174 C158.97204732 589.98493326 157.50498118 588.76131119 155.71206665 586.97949219 C155.0841774 586.3601329 154.45628815 585.74077362 153.80937195 585.10264587 C153.13187393 584.42424149 152.45437592 583.7458371 151.75634766 583.046875 C150.67265144 581.97325462 150.67265144 581.97325462 149.56706238 580.87794495 C147.17738042 578.50727688 144.79532946 576.12911869 142.4140625 573.75 C140.75278241 572.09514791 139.09135243 570.44044629 137.42977905 568.78588867 C133.9443955 565.31248812 130.46317977 561.8349694 126.984375 558.35498047 C122.54050806 553.91091085 118.08307766 549.48072626 113.62189674 545.05404663 C110.18335708 541.63782577 106.75402876 538.21247015 103.32715988 534.7845459 C101.68864096 533.14837759 100.0468998 531.51542925 98.40181351 529.88586426 C96.09233461 527.5961347 93.79605436 525.2938894 91.50244141 522.98828125 C90.82899185 522.32607071 90.1555423 521.66386017 89.46168518 520.98158264 C81.42447546 512.83794689 75.69839869 503.73729592 75.75 492.0625 C75.74484375 490.89847656 75.7396875 489.73445312 75.734375 488.53515625 C76 485 76 485 77.3359375 481.47265625 C78.42765797 477.87214001 78.42765797 477.87214001 75.9921875 474.7109375 C74.97628328 473.5777618 73.93534764 472.46670116 72.875 471.375 C72.3289209 470.77743896 71.7828418 470.17987793 71.22021484 469.56420898 C69.49994156 467.68994389 67.75117406 465.84537044 66 464 C64.9089731 462.81869673 63.82035976 461.63515898 62.734375 460.44921875 C60.7149571 458.24641689 58.68643668 456.05280355 56.6484375 453.8671875 C53.67433608 450.64743758 50.813261 447.36028397 48 444 C45.09291078 445.35893281 42.6310858 446.92109662 40.0859375 448.87109375 C39.33441406 449.43989258 38.58289063 450.00869141 37.80859375 450.59472656 C37.00550781 451.2028418 36.20242188 451.81095703 35.375 452.4375 C26.24701655 459.24155198 16.88787487 465.36260776 7 471 C6.25314941 471.42764648 5.50629883 471.85529297 4.73681641 472.29589844 C-20.14349028 486.37466697 -47.28080385 495.01577727 -75.25048828 500.46386719 C-76.96993874 500.79914629 -78.68748795 501.14451363 -80.40185547 501.50488281 C-114.10891123 508.47278691 -153.90685664 505.59273158 -187 497 C-187.77118164 496.80067871 -188.54236328 496.60135742 -189.33691406 496.39599609 C-226.56428802 486.51484391 -261.06202609 469.06454937 -291 445 C-291.64195312 444.48405273 -292.28390625 443.96810547 -292.9453125 443.43652344 C-304.6932195 433.90781188 -316.37925925 423.70267781 -326 412 C-327.20462891 410.62714844 -327.20462891 410.62714844 -328.43359375 409.2265625 C-340.06161723 395.93859349 -349.77217416 381.60895783 -358 366 C-358.32919434 365.38930664 -358.65838867 364.77861328 -358.99755859 364.14941406 C-374.05860288 336.12225466 -383.56889963 305.44632403 -388 274 C-388.11569336 273.26249512 -388.23138672 272.52499023 -388.35058594 271.76513672 C-398.89508975 204.0706738 -378.45323369 132.64664064 -338.46679688 77.90087891 C-333.11080537 70.72651747 -327.3471973 63.9919871 -321.25 57.4375 C-319.34868921 55.37774664 -317.54364491 53.2773739 -315.75 51.125 C-307.29568514 41.41450157 -297.13934558 32.87973651 -287 25 C-286.30696777 24.45617676 -285.61393555 23.91235352 -284.89990234 23.35205078 C-205.94954061 -38.32636535 -94.98541628 -49.00041743 0 0 Z M-253 54 C-254.08023438 54.75796875 -255.16046875 55.5159375 -256.2734375 56.296875 C-263.67765076 61.66445377 -270.41465851 67.67405059 -277 74 C-277.56509277 74.53786133 -278.13018555 75.07572266 -278.71240234 75.62988281 C-287.31363484 83.8534307 -294.9190822 92.44385836 -302 102 C-302.85023745 103.11980911 -303.7004977 104.2396009 -304.55078125 105.359375 C-311.30579846 114.39265746 -316.8115792 123.99749428 -322 134 C-322.39074707 134.74878418 -322.78149414 135.49756836 -323.18408203 136.26904297 C-338.78149812 166.54098985 -346.48564581 200.49678896 -346.3125 234.5 C-346.31100952 235.23268097 -346.30951904 235.96536194 -346.3079834 236.72024536 C-346.25988932 249.97823952 -345.28383615 262.9233928 -343 276 C-342.85546387 276.8348291 -342.71092773 277.6696582 -342.56201172 278.52978516 C-332.11426538 336.78493779 -298.81808298 386.68992977 -250.41015625 420.52734375 C-241.59182225 426.58601682 -232.45858778 432.0049614 -223 437 C-221.87980469 437.59425781 -220.75960937 438.18851563 -219.60546875 438.80078125 C-200.01297855 448.54104781 -178.50679353 454.40157155 -157 458 C-156.25121582 458.12987305 -155.50243164 458.25974609 -154.73095703 458.39355469 C-100.00758029 467.46962693 -41.2420796 452.34716624 3.65527344 420.68115234 C14.12084836 413.17740923 23.7172501 404.91632556 33 396 C34.34578125 394.71609375 34.34578125 394.71609375 35.71875 393.40625 C64.54842973 365.28841421 82.33511039 328.36726952 93 290 C93.31839844 288.90300781 93.63679688 287.80601562 93.96484375 286.67578125 C98.01302597 271.91300727 98.38039305 256.64536235 98.3125 241.4375 C98.31034485 240.56392853 98.3081897 239.69035706 98.30596924 238.79031372 C98.21747146 216.35561469 95.53791537 195.50922327 89 174 C88.58089355 172.61893066 88.58089355 172.61893066 88.15332031 171.20996094 C81.1165593 148.57305855 71.66978888 125.77732976 57 107 C56.32710937 106.113125 55.65421875 105.22625 54.9609375 104.3125 C53.02543565 101.8274112 51.02673137 99.41117581 49 97 C48.16597656 95.98164063 47.33195312 94.96328125 46.47265625 93.9140625 C28.79479801 72.57003102 9.29668118 56.06469264 -14.69873047 42.31933594 C-16.70603194 41.1685342 -18.69912675 39.99679028 -20.69140625 38.8203125 C-51.49942324 21.3659411 -86.14585955 13.75505984 -121.25 13.8125 C-122.04579468 13.81376892 -122.84158936 13.81503784 -123.66149902 13.81634521 C-170.31968738 13.95784706 -214.63143327 26.62142474 -253 54 Z " fill="#FEFDFD" transform="translate(548,211)"/>
<path d="M0 0 C0.7577774 -0.00535767 1.51555481 -0.01071533 2.29629517 -0.01623535 C12.55423918 -0.07128768 22.35164409 0.62316432 32.5 2.25 C33.26924805 2.36504883 34.03849609 2.48009766 34.83105469 2.59863281 C88.23230956 10.82479212 137.25657163 41.03711831 170.5 83.25 C171.97903874 85.00010812 173.45820807 86.75010589 174.9375 88.5 C205.78851819 126.70411061 220.03548211 178.57233253 219.8125 227.0625 C219.81001251 227.93463135 219.80752502 228.8067627 219.80496216 229.70532227 C219.64791922 265.41484754 210.4855978 298.77767962 193.5 330.25 C192.88640625 331.405 192.2728125 332.56 191.640625 333.75 C177.81297609 358.89117983 158.32983804 381.83374144 135.5 399.25 C134.95827148 399.66813965 134.41654297 400.0862793 133.85839844 400.51708984 C104.79475359 422.85681237 72.67777083 436.99584407 36.5 443.25 C35.69836426 443.39808105 34.89672852 443.54616211 34.07080078 443.69873047 C9.53242441 448.14329113 -15.99398456 447.56594234 -40.5 443.25 C-41.28487793 443.12141602 -42.06975586 442.99283203 -42.87841797 442.86035156 C-79.59870787 436.74678497 -114.04975017 420.02734171 -142.5 396.25 C-143.37930176 395.52296875 -143.37930176 395.52296875 -144.27636719 394.78125 C-155.18408415 385.73955909 -165.42105876 376.16177915 -174.5 365.25 C-175.41652344 364.1671875 -175.41652344 364.1671875 -176.3515625 363.0625 C-199.18574404 335.40675821 -214.02761608 302.47016214 -220.5 267.25 C-220.64276367 266.47897949 -220.78552734 265.70795898 -220.93261719 264.91357422 C-223.43495003 251.17323644 -224.68684962 237.74882699 -224.68530273 223.77270508 C-224.68747933 221.58329512 -224.7056787 219.39439893 -224.72460938 217.20507812 C-224.9549346 160.66182483 -200.56063098 106.47372669 -161.5 66.25 C-160.94699219 65.67121094 -160.39398438 65.09242188 -159.82421875 64.49609375 C-151.94247393 56.25851394 -143.865303 48.78459912 -134.5 42.25 C-133.88882324 41.82154785 -133.27764648 41.3930957 -132.64794922 40.95166016 C-116.2635129 29.60795216 -98.32489351 19.85690103 -79.5 13.25 C-78.70916016 12.96817871 -77.91832031 12.68635742 -77.10351562 12.39599609 C-51.32442547 3.27603496 -27.30793992 0.10811272 0 0 Z M-67.5 59.25 C-69.18416016 60.06984375 -69.18416016 60.06984375 -70.90234375 60.90625 C-99.02395924 75.35905602 -121.86958148 99.20380163 -132.5 129.25 C-139.97053095 153.17083882 -139.46128077 175.97431035 -136.15625 200.6953125 C-135.93142017 202.54614658 -135.71209955 204.3976639 -135.5 206.25 C-135.40162842 207.00804932 -135.30325684 207.76609863 -135.2019043 208.54711914 C-134.98809002 211.31619466 -135.03667984 213.5402863 -136.58251953 215.90820312 C-138.0765073 217.54280748 -139.63705574 218.99008621 -141.3125 220.4375 C-146.93544086 225.51735352 -150.68413392 229.35002842 -151.5 237.25 C-151.69224136 241.92033411 -151.60015689 246.57768093 -151.5 251.25 C-151.49484375 252.25675781 -151.4896875 253.26351562 -151.484375 254.30078125 C-150.95888504 268.16996276 -143.83785503 283.29613626 -134.52734375 293.5234375 C-129.69518605 297.63868548 -123.62541211 299.12737109 -117.5 300.25 C-117.3453125 301.61125 -117.3453125 301.61125 -117.1875 303 C-116.04087828 310.85117374 -114.28080995 318.44665879 -110.4765625 325.4453125 C-108.09067767 329.85442767 -106.33499644 334.5919321 -104.5 339.25 C-103.84 339.25 -103.18 339.25 -102.5 339.25 C-102.2628125 340.09949219 -102.025625 340.94898438 -101.78125 341.82421875 C-100.34739609 345.65802936 -98.38066247 348.77274967 -96 352.0625 C-95.56147705 352.67343506 -95.1229541 353.28437012 -94.67114258 353.91381836 C-91.1906498 358.61710319 -87.3243533 362.52884559 -82.82421875 366.28515625 C-80.23360558 368.47520402 -77.89443253 370.84813135 -75.5 373.25 C-62.51937339 385.00643743 -48.17390903 392.1485908 -31.4375 396.9375 C-30.69338867 397.15237061 -29.94927734 397.36724121 -29.18261719 397.58862305 C-0.70132636 405.43007047 30.25079408 399.30276882 55.69433594 385.29394531 C64.16658278 380.39571282 71.4157063 373.94072183 78.5 367.25 C79.31210937 366.51394531 80.12421875 365.77789063 80.9609375 365.01953125 C97.41663121 349.5241856 106.51961695 329.20833244 113.75732422 308.19433594 C115.51368622 303.59615481 116.6568005 301.86357442 121.29833984 299.76733398 C121.9217627 299.49348877 122.54518555 299.21964355 123.1875 298.9375 C135.72591744 292.96992452 141.35959109 283.47023832 146.89453125 271.14453125 C149.67792976 263.22709026 149.96156659 255.33276912 150.125 247 C150.17817383 245.34822754 150.17817383 245.34822754 150.23242188 243.66308594 C150.21533327 234.21024125 147.11709289 228.50505911 141.0859375 221.41015625 C139.99152344 220.37181641 139.99152344 220.37181641 138.875 219.3125 C138.14023437 218.60222656 137.40546875 217.89195312 136.6484375 217.16015625 C133.06230056 213.58826939 133.06230056 213.58826939 128.5 212.25 C128.64622803 211.60039307 128.79245605 210.95078613 128.94311523 210.28149414 C129.61288127 207.29291894 130.27523095 204.30274509 130.9375 201.3125 C131.16759766 200.29091797 131.39769531 199.26933594 131.63476562 198.21679688 C137.5765551 171.26346199 137.13413087 143.24007416 122.5 119.25 C113.32223366 105.19338844 102.03177368 95.12312159 86 89.9375 C79.54394155 87.70034342 74.90976846 85.73090197 70.4140625 80.4140625 C55.07829884 63.07526032 30.43528931 54.07774426 8.5 49.25 C7.77804443 49.0742041 7.05608887 48.8984082 6.31225586 48.71728516 C2.55865687 48.09358618 -1.16216992 48.04779284 -4.95703125 48.01171875 C-5.77765549 48.003647 -6.59827972 47.99557526 -7.44377136 47.98725891 C-9.18278926 47.97345449 -10.92183384 47.96271611 -12.66088867 47.95483398 C-14.40901849 47.9434062 -16.15711602 47.92310359 -17.9050293 47.89331055 C-36.23262198 47.58161087 -51.00089873 51.20544735 -67.5 59.25 Z " fill="#DA2819" transform="translate(426.5,224.75)"/>
<path d="M0 0 C4.82793961 1.51084124 8.7419264 5.13520358 12.234375 8.69921875 C12.234375 9.35921875 12.234375 10.01921875 12.234375 10.69921875 C12.894375 10.69921875 13.554375 10.69921875 14.234375 10.69921875 C29.31327357 26.98233492 39.16310961 47.19925425 42.80419922 68.98583984 C42.94873535 69.81164551 43.09327148 70.63745117 43.2421875 71.48828125 C43.36223145 72.22771973 43.48227539 72.9671582 43.60595703 73.72900391 C44.37014241 76.12487648 45.23169888 77.19108955 47.234375 78.69921875 C51.46705261 78.61622507 54.52725543 77.64556418 58.171875 75.63671875 C62.51029365 73.34583231 65.34517421 73.06835413 70.234375 73.69921875 C73.98649776 75.71424764 75.87081595 77.15388017 78.234375 80.69921875 C79.29936311 93.65887928 78.28865175 104.79592177 70.31640625 115.50390625 C65.22943163 120.8676581 58.13725125 122.98793553 51.14453125 124.828125 C48.55467878 126.00918247 47.65542453 127.23970994 46.234375 129.69921875 C45.51138328 132.51651633 45.51138328 132.51651633 45.046875 135.69921875 C40.86938137 156.58668691 30.47014047 175.08510383 16.234375 190.69921875 C15.64011719 191.37597656 15.04585937 192.05273438 14.43359375 192.75 C1.10382641 207.13821041 -21.13351969 217.9910922 -40.74169922 218.82592773 C-44.29192017 218.90629944 -47.83954667 218.93418773 -51.390625 218.94921875 C-53.18306641 218.98015625 -53.18306641 218.98015625 -55.01171875 219.01171875 C-66.2480126 219.06041341 -76.77780622 217.40265476 -86.765625 212.07421875 C-87.43513184 211.72504395 -88.10463867 211.37586914 -88.79443359 211.01611328 C-104.76722362 202.48945656 -119.49256716 190.4854958 -128.765625 174.69921875 C-129.28866211 173.81290771 -129.28866211 173.81290771 -129.82226562 172.90869141 C-137.58959289 159.55404908 -143.51863708 145.43265223 -145.34375 129.984375 C-145.65988863 127.43052884 -145.65988863 127.43052884 -147.765625 124.69921875 C-150.3394183 123.89452893 -150.3394183 123.89452893 -153.328125 123.38671875 C-160.77072658 121.62188628 -166.43201348 119.42118143 -170.6171875 112.74609375 C-174.23902694 105.63973579 -176.02095023 99.69979016 -176.578125 91.82421875 C-176.65482422 91.02113281 -176.73152344 90.21804688 -176.81054688 89.390625 C-177.09342266 85.25314066 -177.15294501 83.31522666 -174.88671875 79.7109375 C-170.92605196 75.95450399 -168.08624637 75.4751611 -162.765625 75.43359375 C-160.765625 75.69921875 -160.765625 75.69921875 -158.82421875 76.69140625 C-155.01915972 78.55422452 -150.89374895 78.25364316 -146.765625 77.69921875 C-143.20882328 75.59417284 -142.07093564 74.61515067 -140.765625 70.69921875 C-140.69083868 68.74854222 -140.61980489 66.79757461 -140.57641602 64.84594727 C-140.29790944 54.15196573 -138.83149868 42.79802928 -132.765625 33.69921875 C-131.41072204 33.81596776 -130.05671804 33.94315298 -128.703125 34.07421875 C-127.57197266 34.17863281 -127.57197266 34.17863281 -126.41796875 34.28515625 C-123.765625 34.69921875 -123.765625 34.69921875 -120.56347656 35.7019043 C-114.01592018 37.42129025 -107.30771809 37.13870852 -100.578125 37.13671875 C-99.8175177 37.13778625 -99.0569104 37.13885376 -98.27325439 37.13995361 C-85.80524748 37.11467153 -74.59291319 35.86046854 -62.765625 31.69921875 C-61.72100098 31.35431396 -61.72100098 31.35431396 -60.65527344 31.00244141 C-42.3580038 24.94763064 -23.02667161 15.60222751 -8.4453125 2.88671875 C-5.59339783 0.55862515 -3.7158875 -0.20883864 0 0 Z " fill="#DA281A" transform="translate(474.765625,382.30078125)"/>
<path d="M0 0 C2.60807987 2.38077015 4.84842363 4.93286776 7.1796875 7.58203125 C12.04312856 12.61639196 16.72482656 13.98155436 23.29956055 15.65258789 C36.13944392 18.91643287 45.83158688 27.14849968 52.9921875 38.26953125 C62.34215292 55.06777421 61.65730389 78.75386078 57.50390625 97.015625 C57.19066406 97.78003906 56.87742187 98.54445313 56.5546875 99.33203125 C55.5646875 99.66203125 54.5746875 99.99203125 53.5546875 100.33203125 C53.38598145 99.77878174 53.21727539 99.22553223 53.04345703 98.65551758 C51.2968193 93.15016678 49.15809201 88.10552962 46.4296875 83.01953125 C46.03716797 82.28532959 45.64464844 81.55112793 45.24023438 80.79467773 C36.97649167 65.70543941 23.69999841 47.35534539 7.5546875 40.33203125 C3.92865993 39.35498924 0.27564862 38.82177148 -3.4453125 38.33203125 C-4.15042969 38.2340625 -4.85554687 38.13609375 -5.58203125 38.03515625 C-14.95914414 37.35041778 -22.71792046 44.11839105 -30.0703125 49.08203125 C-56.82500202 67.13978695 -87.60771877 81.73544904 -120.71484375 75.42578125 C-123.93949329 74.74392526 -127.14459633 73.99043946 -130.3515625 73.23046875 C-137.49467545 71.57178057 -144.64625277 71.35744262 -151.4453125 74.33203125 C-152.49030127 76.57984435 -152.49030127 76.57984435 -153.4453125 79.33203125 C-154.57669036 81.58933455 -155.72380423 83.83878943 -156.8828125 86.08203125 C-159.58945102 91.38908339 -161.76878543 96.61211536 -163.4453125 102.33203125 C-164.1053125 102.00203125 -164.7653125 101.67203125 -165.4453125 101.33203125 C-166.49868332 96.11870978 -166.63277234 90.94132043 -166.68359375 85.64453125 C-166.6916655 84.82436523 -166.69973724 84.00419922 -166.70805359 83.15917969 C-166.72182032 81.42791813 -166.73257525 79.69663028 -166.74047852 77.96533203 C-166.75194077 76.22403805 -166.77230024 74.48277759 -166.80200195 72.74169922 C-167.05011022 58.15182438 -165.66668014 45.12401302 -158.6328125 32.01953125 C-158.28516846 31.35276367 -157.93752441 30.68599609 -157.5793457 29.99902344 C-145.04301362 6.42877683 -123.3847706 -12.37943946 -97.96484375 -20.82421875 C-62.907239 -31.34525769 -27.77685414 -22.98635321 0 0 Z " fill="#DA281A" transform="translate(478.4453125,320.66796875)"/>
<path d="M0 0 C3.5625 1.25 3.5625 1.25 6.125 3.25 C8.18681967 7.55292802 7.98279623 10.73224923 6.5625 15.25 C0.60687663 26.16864285 -9.57644621 31.8858976 -21.15234375 35.3671875 C-37.44773882 39.22717963 -54.81158928 36.19173711 -69.078125 27.75 C-69.85671875 27.255 -70.6353125 26.76 -71.4375 26.25 C-72.11296875 25.8375 -72.7884375 25.425 -73.484375 25 C-75.1875 23.8125 -75.1875 23.8125 -77.4375 21.25 C-78.03750533 15.12994566 -74.70049489 11.21326737 -71.2265625 6.38671875 C-69.4375 4.25 -69.4375 4.25 -66.4375 2.25 C-61.26272313 2.14439231 -58.73388198 3.58645699 -54.625 6.6875 C-49.64768161 10.36769905 -45.5541315 11.69574213 -39.4375 12.25 C-38.39722656 12.38921875 -38.39722656 12.38921875 -37.3359375 12.53125 C-27.5726125 13.26258521 -17.3537929 8.8256852 -9.5 3.375 C-6.20147444 1.12689776 -4.04912266 -0.28284313 0 0 Z " fill="#FDFAF9" transform="translate(459.4375,525.75)"/>
<path d="M0 0 C5.42936177 2.51359341 7.62367615 5.69896986 10 11 C10.6913085 15.83915951 9.58865384 18.89385942 7 23 C3.541108 26.76408835 0.30776935 27.81658115 -4.65625 28.1640625 C-9.8933618 27.79746467 -13.59706234 25.19249701 -17.5 21.875 C-19.73629349 17.58877082 -19.75101256 13.73365495 -19 9 C-14.87047035 0.58799515 -8.87728933 -1.25393493 0 0 Z " fill="#FDF9F8" transform="translate(473,455)"/>
<path d="M0 0 C4.57552942 1.79042456 7.19132955 5.02105019 10 9 C11.55671309 13.47555013 10.9428676 16.83972162 9.13671875 21.09765625 C7.12297467 24.46773655 4.59480642 26.46345253 1 28 C-3.56572706 28.82304378 -8.01054768 28.41466851 -12 26 C-15.2915436 23.30549056 -17.6284582 20.76831549 -18.51953125 16.52734375 C-18.74979061 10.87319726 -17.7570852 7.40115695 -14 3 C-13.57074219 2.45988281 -13.14148438 1.91976563 -12.69921875 1.36328125 C-9.21145942 -1.43494405 -4.22930619 -0.44780889 0 0 Z " fill="#FCF8F8" transform="translate(382,453)"/>
<path d="M0 0 C4.54565714 3.82248441 8.98196142 7.75400943 13.375 11.75 C13.91092773 12.23380127 14.44685547 12.71760254 14.99902344 13.21606445 C18.88300836 16.76601672 18.88300836 16.76601672 20 19 C16.04322598 17.32598022 13.15535787 14.86850715 10 12 C10 11.34 10 10.68 10 10 C9.195625 9.690625 9.195625 9.690625 8.375 9.375 C5.08021991 7.46749574 2.40636372 4.95180616 0 2 C0 1.34 0 0.68 0 0 Z " fill="#DD1C12" transform="translate(228,630)"/>
<path d="M0 0 C0 1.32 0 2.64 0 4 C-0.48082031 4.40863281 -0.96164062 4.81726563 -1.45703125 5.23828125 C-3.9575234 8.09327356 -3.57652818 11.55713604 -3.6875 15.1875 C-3.72166016 15.93708984 -3.75582031 16.68667969 -3.79101562 17.45898438 C-3.87334294 19.30546838 -3.93835281 21.15270994 -4 23 C-4.33 23 -4.66 23 -5 23 C-5.2766209 20.1045008 -5.52198324 17.21188954 -5.75 14.3125 C-5.83121094 13.49587891 -5.91242188 12.67925781 -5.99609375 11.83789062 C-6.30245311 7.63395942 -6.37485646 5.62134821 -4.140625 1.91796875 C-2 0 -2 0 0 0 Z " fill="#E2544A" transform="translate(304,460)"/>
<path d="M0 0 C0.66 0 1.32 0 2 0 C3.55726398 1.76354335 5.04760233 3.58663608 6.5 5.4375 C9.28339344 9.276946 9.28339344 9.276946 13 12 C13.625 14.5625 13.625 14.5625 14 17 C10.60580737 13.71529745 7.38092265 10.29302848 4.1875 6.8125 C3.39730469 5.95269531 2.60710937 5.09289062 1.79296875 4.20703125 C0 2 0 2 0 0 Z " fill="#DC1E11" transform="translate(504,373)"/>
<path d="M0 0 C-6.42725811 3.66237906 -13.96110965 2.0238386 -21 1 C-21 0.67 -21 0.34 -21 0 C-13.81191259 -0.88826175 -7.17757765 -1.01202288 0 0 Z " fill="#E1544A" transform="translate(433,537)"/>
<path d="M0 0 C6.26079448 -0.43177893 9.09075703 0.07260562 14 4 C13.34 4.66 12.68 5.32 12 6 C11.505 5.525625 11.01 5.05125 10.5 4.5625 C7.00531349 2.37832093 4.09033064 2.34086089 0 2 C0 1.34 0 0.68 0 0 Z " fill="#DC3428" transform="translate(537,456)"/>
<path d="M0 0 C3.3907519 1.45317939 5.41300312 3.41300312 8 6 C8.99 6.33 9.98 6.66 11 7 C12.1875 9.0625 12.1875 9.0625 13 11 C10 11 10 11 7.51953125 8.84765625 C6.62621094 7.92855469 5.73289062 7.00945312 4.8125 6.0625 C3.91144531 5.14597656 3.01039063 4.22945312 2.08203125 3.28515625 C0 1 0 1 0 0 Z " fill="#DD2014" transform="translate(599,246)"/>
<path d="M0 0 C1.46726798 3.81489674 0.43336419 6.29011622 -1 10 C-1.66 9.67 -2.32 9.34 -3 9 C-3 6.69 -3 4.38 -3 2 C-2.01 2 -1.02 2 0 2 C0 1.34 0 0.68 0 0 Z " fill="#DF4238" transform="translate(316,413)"/>
<path d="M0 0 C2.97903734 2.97903734 4 5.80285329 4 10 C3.01 10 2.02 10 1 10 C-0.1577506 6.52674819 -0.06866652 3.63932552 0 0 Z " fill="#E1534B" transform="translate(314,545)"/>
<path d="M0 0 C0.99 0.495 0.99 0.495 2 1 C2 2.32 2 3.64 2 5 C2.66 5 3.32 5 4 5 C4.66 6.65 5.32 8.3 6 10 C3.5625 8.9375 3.5625 8.9375 1 7 C0.1875 3.3125 0.1875 3.3125 0 0 Z " fill="#E36059" transform="translate(320,559)"/>
</svg>
